<?xml version="1.0" encoding="iso-8859-1"?>
<!-- Generator: Adobe Illustrator 16.0.0, SVG Export Plug-In . SVG Version: 6.00 Build 0)  -->
<!DOCTYPE svg PUBLIC "-//W3C//DTD SVG 1.1//EN" "http://www.w3.org/Graphics/SVG/1.1/DTD/svg11.dtd">
<svg version="1.1" xmlns="http://www.w3.org/2000/svg" xmlns:xlink="http://www.w3.org/1999/xlink" x="0px" y="0px"
	 width="367.916px" height="128.211px" viewBox="0 0 367.916 128.211" style="enable-background:new 0 0 367.916 128.211;"
	 xml:space="preserve">
<g id="Layer_1" style="display:none;">
	<rect x="-175.56" y="-146.033" style="display:inline;fill:none;" width="651.969" height="836.22"/>
	<g style="display:inline;">
		<path style="fill:#EC6749;" d="M-430.486-20.376c-1.863-1.766-4.17-2.892-6.468-4.062c-2.044-1.039-4.043-2.205-6.217-2.982
			c-5.741-2.046-11.838-2.894-17.954-3.345c-8.183-0.604-16.397-0.857-24.596-1.292c-2.44-0.125-4.941-0.086-7.293-0.571
			c-4.959-1.025-9.996-0.987-15.413-1.373c-3.301,0.091-7.019,0.029-10.696,0.342c-4.711,0.398-9.426,0.936-14.072,1.707
			c-5.744,0.952-11.141,2.705-15.396,6.479c-3.237,2.871-5.903,5.975-6.477,10.179c-0.299,2.19-0.955,4.34-1.377,6.52
			c-0.916,4.723-0.562,9.331,1.757,13.742c1.556,2.961,3.838,5.32,6.964,7.149c2.938,1.72,6.229,2.703,9.379,3.988
			c4.539,1.848,9.28,3.155,14.197,3.811c6.148,0.819,12.329,1.492,18.52,2.016c5.905,0.501,11.769,1.101,17.603,2.096
			c4.342,0.741,8.822,1.059,13.245,0.55c3.513-0.402,6.994-1.084,10.448-1.791c4.466-0.917,8.949-1.832,13.322-3.035
			c3.744-1.034,7.274-2.567,10.423-4.711c3.422-2.327,6.354-5.084,9.103-7.976c1.898-1.997,3.458-4.2,3.958-6.888
			c0.44-2.37,1.25-4.689,1.666-7.062C-424.956-11.999-426.418-16.511-430.486-20.376"/>
		<g>
			<path style="fill:#DCD9BC;" d="M-544.577-18.563c-0.04-0.118-0.082-0.237-0.123-0.355c-0.116,0.073-0.288,0.125-0.328,0.224
				c-0.038,0.092,0.065,0.231,0.105,0.351C-544.806-18.418-544.692-18.491-544.577-18.563 M-544.936-22.025
				c2.154,2.023,1.98,4.924-0.054,6.335c-0.785,0.543-1.62,0.369-1.79-0.547c-0.166-0.892-0.161-1.894,0.124-2.749
				C-546.322-19.986-545.606-20.881-544.936-22.025"/>
			<path style="fill:#DCD9BC;" d="M-478.172,20.143c-1.616,0.764-2.766,1.31-4.105,1.941c-0.546-1.232-1.05-2.373-1.583-3.58
				C-481.968,19.051-480.306,19.53-478.172,20.143"/>
			<path style="fill:#DCD9BC;" d="M-496.284-22.79c-0.186-1.898,0.937-4.511,2.303-5.366
				C-493.369-26.429-494.536-23.709-496.284-22.79"/>
			<path style="fill:#DCD9BC;" d="M-465.503-3.566c-2.416,0.005-4.17-1.598-6.56-1.212C-470.466-6.567-467.019-5.917-465.503-3.566"
				/>
			<path style="fill:#DCD9BC;" d="M-500.675-25.272c-0.222,1.909-0.438,2.126-2.24,2.437
				C-502.961-24.434-502.819-24.599-500.675-25.272"/>
			<path style="fill:#DCD9BC;" d="M-472.878,21.269c0.701-1.15,1.153-1.893,1.683-2.765
				C-469.923,20.224-470.235,20.85-472.878,21.269"/>
			<path style="fill:#DCD9BC;" d="M-529.761-28.407c1.098,1.823,1.066,1.991-0.438,2.935
				C-530.705-26.465-530.688-27.34-529.761-28.407"/>
			<path style="fill:#DCD9BC;" d="M-539.771,9.639c-3.334-6.847-5.872-13.908-8.011-21.077c0.156-0.058,0.311-0.114,0.466-0.172
				c0.204,0.147,0.513,0.265,0.594,0.449c0.263,0.583,0.444,1.19,0.653,1.789c1.272,3.669,2.472,7.359,3.838,11.005
				c0.846,2.257,1.952,4.446,2.921,6.671c0.158,0.366,0.208,0.761,0.309,1.141C-539.258,9.509-539.513,9.575-539.771,9.639"/>
			<path style="fill:#DCD9BC;" d="M-528.927,15.859c-0.136-0.115-0.358-0.263-0.398-0.34c-0.528-1.012-1.17-2.07-1.507-3.009
				c-0.908-2.522-1.683-4.998-2.502-7.489c-0.053-0.162-0.041-0.297-0.059-0.445l0.584,0.211c0.211,0.178,0.576,0.415,0.608,0.521
				c0.509,1.562,0.888,3.072,1.472,4.662s0.67,2.986,2.124,4.915c0.303,0.402,0.422,0.736,0.548,1.072
				c0.037,0.098-0.199,0.091-0.309,0.132C-528.553,16.014-528.739,15.935-528.927,15.859"/>
			<path style="fill:#DCD9BC;" d="M-442.438-5.252c-0.488,0.14-0.481-0.108-0.535-0.294c-0.577-2.008-1.126-4.035-1.72-6.032
				c-0.297-0.999-0.672-1.947-1.001-2.926c-0.059-0.175-0.354-0.235,0.299-0.878c0.152,0.149,0.321,0.228,0.375,0.381
				c0.358,1.029,0.756,2.034,1.022,3.121c0.497,2.035,0.806,4.19,1.797,5.908C-442.107-5.814-442.123-5.803-442.438-5.252"/>
			<path style="fill:#DCD9BC;" d="M-550.25-8.181c0.14,0.069,0.375,0.127,0.405,0.209c2.167,6.098,4.316,12.2,6.451,18.301
				c0.031,0.087-0.142,0.198-0.337,0.44c-0.33-0.286-0.667-0.469-0.771-0.69c-0.359-0.76-0.675-1.529-0.94-2.303
				c-1.461-4.253-2.915-8.508-4.344-12.767c-0.345-1.029-0.586-2.07-0.875-3.107C-550.526-8.126-550.388-8.154-550.25-8.181"/>
			<path style="fill:#DCD9BC;" d="M-435.8,2.889c-0.137-0.123-0.353-0.217-0.402-0.372c-2.412-7.371-4.812-14.748-7.315-22.447
				c0.517,0.291,0.851,0.362,0.942,0.552c0.392,0.815,0.783,1.642,1.049,2.506c1.471,4.78,2.889,9.58,4.365,14.359
				c0.416,1.351,0.969,2.653,1.441,3.987c0.141,0.396,0.222,0.818,0.33,1.228C-435.525,2.764-435.663,2.826-435.8,2.889"/>
			<path style="fill:#DCD9BC;" d="M-533.354,15.66c-0.15-0.096-0.405-0.189-0.438-0.286c-1.331-3.806-2.644-7.61-3.944-11.418
				c-0.028-0.085,0.137-0.174,0.417-0.255c1.683,2.407,2.405,4.825,3.11,7.241c0.458,1.566,1.265,3.137,1.538,4.702
				C-532.899,15.649-533.126,15.655-533.354,15.66"/>
			<path style="fill:#DCD9BC;" d="M-431.712,2.423c-0.711-0.096-0.775-0.604-0.917-0.991c-0.682-1.892-1.388-3.777-1.973-5.706
				c-1.344-4.43-2.635-8.878-3.918-13.329c-0.29-0.999-0.456-2.04-0.687-3.091c0.803-0.174,0.779,0.29,0.866,0.602
				c1.069,3.846,2.049,7.722,3.205,11.535c0.969,3.2,2.14,6.325,3.217,9.484C-431.77,1.373-431.419,1.78-431.712,2.423"/>
			<path style="fill:#DCD9BC;" d="M-429.79-3.807c-0.126-0.124-0.319-0.225-0.366-0.376c-1.547-5.031-3.078-10.068-4.602-15.108
				c-0.032-0.108,0.084-0.271,0.13-0.403c0.655-0.208,0.747,0.238,0.85,0.555c0.301,0.93,0.521,1.89,0.809,2.823
				c1.141,3.695,2.304,7.383,3.44,11.081c0.125,0.404,0.127,0.852,0.189,1.278C-429.489-3.908-429.64-3.857-429.79-3.807"/>
			<path style="fill:#DCD9BC;" d="M-506.318,8.766c0.341-0.523,0.525-0.77,0.656-1.038c0.016-0.034-0.345-0.272-0.357-0.26
				c-0.226,0.212-0.459,0.433-0.613,0.689C-506.681,8.238-506.5,8.433-506.318,8.766 M-506.03,6.078
				c1.118,0.033,1.91,0.723,1.835,1.596c-0.07,0.83-1.36,2.027-2.116,1.963c-0.753-0.063-1.535-0.951-1.54-1.75
				C-507.856,6.809-507.091,6.047-506.03,6.078"/>
			<path style="fill:#DCD9BC;" d="M-520.163-19.699c-0.195-3.492,0.471-6.281,3.187-8.708c0.265,0.395,0.659,0.731,0.585,0.91
				c-0.356,0.873-0.852,1.699-1.269,2.551c-0.388,0.792-0.753,1.595-1.103,2.403C-519.123-21.712-518.97-20.688-520.163-19.699"/>
			<path style="fill:#DCD9BC;" d="M-513.694,6.243c-1.045-0.585-2.121-1.188-3.364-1.884c0.985-1.031,2.017-2.11,3.06-3.201
				C-513.176,2.129-513.097,3.74-513.694,6.243"/>
			<path style="fill:#DCD9BC;" d="M-517.46,11.56c0.083,1.106-0.955,2.27-1.809,2.36c-0.822,0.088-1.133-0.375-1.16-1.033
				c-0.038-0.928,0.69-1.807,1.624-1.802C-518.302,11.089-517.801,11.43-517.46,11.56"/>
			<path style="fill:#DCD9BC;" d="M-507.624-25.952c-0.188-1.247-0.287-1.893-0.424-2.795c1.312,0.066,2.32,0.118,3.526,0.18
				C-505.035-27.036-506.25-26.896-507.624-25.952"/>
			<path style="fill:#DCD9BC;" d="M-504.225,14.085c0,1.02,0.102,1.715-0.044,2.368c-0.071,0.323-0.646,0.822-0.908,0.782
				c-0.454-0.07-1.011-0.421-1.215-0.794C-506.865,15.584-506.414,15.064-504.225,14.085"/>
		</g>
	</g>
	<g style="display:inline;">
		<path style="fill:#FFFFFF;" d="M-534.833-2.483c-0.654,0.205-1.204,0.333-1.649,0.381s-0.837,0.029-1.174-0.056l-1.737-17.545
			c-0.299-0.294-0.616-0.803-0.951-1.525c-0.335-0.722-0.512-1.168-0.531-1.341c-0.019-0.172-0.011-0.286,0.024-0.341
			c0.035-0.054,0.671-0.185,1.909-0.394c1.237-0.207,2.494-0.38,3.77-0.52c1.275-0.14,2.417-0.192,3.425-0.16
			c1.007,0.033,2.067,0.168,3.179,0.404c1.112,0.237,2.024,0.706,2.736,1.407c0.711,0.701,1.134,1.654,1.266,2.858
			c0.132,1.205-0.171,2.371-0.909,3.496c-0.737,1.125-1.796,2.123-3.176,2.991c0.036,0.324,0.833,1.708,2.391,4.15
			c1.558,2.442,2.753,3.996,3.584,4.663c0.022,0.018,0.036,0.053,0.042,0.103c0.005,0.051-0.146,0.164-0.454,0.343
			c-0.845,0.522-1.783,0.84-2.815,0.954l-0.766,0.021c-0.495-0.396-1.431-1.789-2.809-4.18c-1.378-2.389-2.16-3.861-2.343-4.416
			c-0.227,0.17-1.166,0.488-2.816,0.955c0.487,4.065,0.847,6.423,1.083,7.074C-533.754-2.914-534.18-2.688-534.833-2.483z
			 M-535.037-13.604c2.364-0.483,4.06-1.238,5.085-2.262c1.025-1.024,1.489-1.978,1.393-2.857c-0.097-0.882-0.603-1.481-1.519-1.801
			c-0.916-0.319-2.042-0.406-3.379-0.259c-0.709,0.078-1.421,0.216-2.137,0.417C-535.62-19.481-535.434-17.228-535.037-13.604z"/>
	</g>
	<g style="display:inline;">
		<path style="fill:#FFFFFF;" d="M-513.439-8.287c-0.503,0.427-1.545,0.728-3.128,0.901c-1.582,0.173-2.848-0.166-3.798-1.016
			c-0.951-0.85-1.512-2.061-1.684-3.635s0.185-2.996,1.073-4.265c0.888-1.271,2.25-2.007,4.088-2.208
			c0.751-0.082,1.464,0.042,2.139,0.374c0.675,0.33,1.067,0.995,1.177,1.993c0.109,0.999-0.218,2.034-0.982,3.104
			c-0.765,1.07-1.87,1.943-3.315,2.618c0.021,0.192,0.233,0.326,0.638,0.403c0.404,0.077,0.799,0.095,1.182,0.053
			c1.215-0.133,2.15-0.454,2.806-0.963c0.014-0.017,0.037-0.027,0.069-0.031c0.032-0.003,0.065,0.146,0.099,0.45
			C-512.975-9.582-513.097-8.842-513.439-8.287z M-516.359-15.68c-0.051-0.463-0.324-0.668-0.819-0.614
			c-0.655,0.072-1.194,0.47-1.616,1.196c-0.421,0.725-0.581,1.56-0.478,2.502c0.025,0.224,0.069,0.332,0.133,0.325
			c0.573-0.079,1.2-0.483,1.88-1.212C-516.579-14.213-516.279-14.946-516.359-15.68z"/>
	</g>
	<g style="display:inline;">
		<path style="fill:#FFFFFF;" d="M-499.877-15.568c0.219,1.998,0.37,3.162,0.455,3.491c0.224,0.865,0.564,1.466,1.022,1.804
			c0.019,0.176-0.268,0.474-0.861,0.895c-0.593,0.42-1.145,0.659-1.656,0.715c-0.144,0.016-0.319-0.18-0.525-0.585
			c-0.207-0.406-0.333-0.711-0.379-0.917c-0.047-0.204-0.078-0.307-0.094-0.305l-0.066,0.056c-0.774,0.765-1.728,1.208-2.862,1.332
			c-1.136,0.125-2.04-0.055-2.716-0.54s-1.062-1.172-1.16-2.068c-0.098-0.895,0.014-1.672,0.339-2.33
			c0.324-0.657,0.732-1.175,1.225-1.552c0.492-0.377,1.047-0.698,1.666-0.959c0.939-0.427,1.689-0.67,2.249-0.731l0.046-0.029
			c-0.085-0.783-1.12-1.066-3.101-0.849c-0.783,0.085-1.363,0.182-1.74,0.287l-0.023,0.002c-0.035-0.319,0.021-0.729,0.168-1.232
			c0.147-0.501,0.281-0.831,0.401-0.99c0.12-0.158,0.684-0.292,1.69-0.402c1.822-0.2,3.202,0,4.142,0.601
			c0.939,0.601,1.488,1.628,1.647,3.082L-499.877-15.568z M-502.37-13.742l-0.1-0.911c-0.039-0.352-0.066-0.527-0.082-0.526
			c-1.071,0.118-1.967,0.5-2.688,1.145c-0.457,0.406-0.657,0.872-0.599,1.4c0.037,0.335,0.187,0.602,0.451,0.799
			c0.264,0.198,0.64,0.27,1.127,0.217c0.487-0.054,0.943-0.25,1.367-0.587C-502.469-12.543-502.294-13.056-502.37-13.742z"/>
	</g>
	<g style="display:inline;">
		<path style="fill:#FFFFFF;" d="M-500.345,11.484l-1.083-11.709c-0.104-0.956-0.183-1.454-0.235-1.496
			c-0.052-0.042-0.209-0.048-0.471-0.02c-0.581,0.064-1.601,0.271-3.06,0.62l-0.746,0.196l-0.164-0.723
			c-0.099-0.898-0.035-1.701,0.19-2.408l0.132-0.355c1.459-0.179,3.105-0.421,4.938-0.726c1.834-0.305,3.495-0.539,4.984-0.702
			c1.489-0.163,2.238-0.207,2.247-0.133c0.059,0.544,0.083,1.2,0.073,1.969c-0.011,0.769-0.074,1.227-0.191,1.371
			c-0.441-0.045-1.243-0.005-2.404,0.122c-1.162,0.127-1.766,0.222-1.817,0.284c-0.117,0.146,0.086,2.598,0.607,7.354
			s1.118,7.621,1.793,8.588l0.003,0.028c0.019,0.169-0.329,0.367-1.043,0.598c-0.714,0.229-1.287,0.368-1.717,0.416
			c-0.6,0.065-1.096,0.035-1.489-0.093C-499.945,14.528-500.128,13.469-500.345,11.484z"/>
	</g>
	<g style="display:inline;">
		<path style="fill:#FFFFFF;" d="M-486.079-2.998c0.508-0.056,0.938,0.066,1.289,0.365c0.351,0.299,0.556,0.715,0.614,1.252
			c0.059,0.536-0.099,1.017-0.474,1.441c-0.375,0.425-0.816,0.665-1.325,0.72c-0.508,0.056-0.933-0.062-1.273-0.352
			c-0.34-0.29-0.54-0.703-0.599-1.24c-0.059-0.536,0.094-1.021,0.458-1.454C-487.024-2.697-486.587-2.942-486.079-2.998z
			 M-483.921,3.756l0.437,4.499c0.158,1.441,0.315,2.497,0.473,3.162c0.157,0.667,0.462,1.274,0.915,1.822
			c0.02,0.185-0.327,0.522-1.04,1.013c-0.714,0.488-1.339,0.763-1.875,0.822c-0.167,0.018-0.364-0.241-0.591-0.777
			c-0.227-0.535-0.392-1.051-0.492-1.546c-0.101-0.494-0.309-2.174-0.623-5.041s-0.42-4.435-0.319-4.708
			c0.389-0.38,1.12-0.628,2.192-0.745c0.425-0.047,0.689-0.021,0.794,0.081L-483.921,3.756z"/>
	</g>
	<g style="display:inline;">
		<path style="fill:#FFFFFF;" d="M-488.995-21.368l-0.436-3.542c-0.108-0.991-0.142-1.513-0.099-1.566
			c0.17-0.212,0.466-0.435,0.884-0.667c0.42-0.232,0.829-0.37,1.229-0.413c0.399-0.044,0.603-0.035,0.61,0.03
			c0.163,2.667,0.408,5.494,0.735,8.482c0.327,2.989,0.57,4.765,0.729,5.33c0.206,0.851,0.54,1.461,1.001,1.831
			c0.018,0.16-0.287,0.448-0.912,0.864c-0.625,0.416-1.17,0.65-1.633,0.701c-0.048,0.005-0.127-0.051-0.237-0.169
			c-0.348-0.365-0.591-0.889-0.73-1.569c-0.005-0.048-0.024-0.071-0.056-0.067l-0.067,0.057c-0.566,1.031-1.512,1.62-2.839,1.766
			c-1.071,0.117-1.963-0.213-2.68-0.992c-0.715-0.779-1.132-1.695-1.247-2.75c-0.198-1.806,0.193-3.406,1.172-4.798
			C-492.59-20.234-491.065-21.076-488.995-21.368z M-488.672-18.855c-0.003-0.032-0.092-0.039-0.268-0.02l-0.097,0.011
			c-1.022,0.112-1.79,0.528-2.301,1.247c-0.511,0.719-0.712,1.582-0.602,2.589c0.065,0.591,0.257,1.059,0.579,1.404
			c0.321,0.345,0.764,0.485,1.332,0.423s0.996-0.359,1.285-0.893c0.289-0.533,0.418-0.943,0.386-1.231
			C-488.552-17.099-488.657-18.276-488.672-18.855z"/>
	</g>
	<g style="display:inline;">
		<path style="fill:#FFFFFF;" d="M-478.79-26.406c0.439-0.048,0.811,0.057,1.114,0.314c0.303,0.257,0.48,0.619,0.531,1.083
			c0.051,0.463-0.085,0.879-0.409,1.246c-0.324,0.367-0.706,0.574-1.145,0.622c-0.44,0.048-0.807-0.053-1.101-0.303
			c-0.294-0.251-0.467-0.608-0.518-1.072c-0.051-0.463,0.082-0.882,0.396-1.256C-479.606-26.146-479.229-26.357-478.79-26.406z
			 M-476.925-20.57l0.377,3.888c0.137,1.247,0.273,2.158,0.409,2.733c0.136,0.576,0.399,1.101,0.791,1.576
			c0.018,0.159-0.282,0.451-0.899,0.875s-1.157,0.66-1.62,0.711c-0.144,0.016-0.313-0.209-0.51-0.671
			c-0.196-0.464-0.338-0.909-0.425-1.337c-0.087-0.426-0.267-1.878-0.538-4.356c-0.271-2.477-0.363-3.832-0.275-4.069
			c0.336-0.327,0.967-0.542,1.895-0.643c0.367-0.041,0.596-0.018,0.687,0.07L-476.925-20.57z"/>
	</g>
	<g style="display:inline;">
		<path style="fill:#FFFFFF;" d="M-468.322-18.94l0.121,0.885l0.199,1.821c0.188,1.71,0.252,2.601,0.196,2.67
			c-0.186,0.231-0.527,0.43-1.027,0.598c-0.499,0.168-0.913,0.27-1.24,0.306c-0.328,0.036-0.494,0.03-0.5-0.018
			c0.033-0.732-0.041-1.921-0.221-3.566l-0.662-5.385c-0.109-0.991-0.127-1.531-0.056-1.621c0.157-0.195,0.443-0.383,0.86-0.566
			c0.416-0.183,0.812-0.295,1.188-0.336c0.375-0.042,0.568-0.022,0.577,0.058c-0.006,0.388,0.012,0.775,0.054,1.159
			c0.042,0.383,0.087,0.572,0.135,0.566l0.066-0.056c0.067-0.12,0.172-0.273,0.314-0.458c0.141-0.185,0.456-0.446,0.945-0.783
			c0.489-0.335,0.969-0.53,1.44-0.582c0.471-0.052,0.88-0.012,1.227,0.12c0.345,0.132,0.636,0.307,0.87,0.523
			c0.234,0.217,0.452,0.542,0.652,0.972s0.362,0.834,0.484,1.208c0.122,0.375,0.242,0.879,0.359,1.513
			c0.145,0.875,0.291,1.99,0.439,3.349l0.235,2.812c0.013,0.112-0.239,0.249-0.755,0.411c-0.517,0.161-0.934,0.259-1.253,0.294
			l-0.804-0.032c0.002-1.456-0.071-2.858-0.219-4.209s-0.347-2.355-0.597-3.016c-0.25-0.66-0.638-0.961-1.167-0.903
			c-0.526,0.058-0.938,0.249-1.235,0.572c-0.296,0.323-0.476,0.634-0.541,0.933l-0.123,0.425L-468.322-18.94z"/>
	</g>
	<g style="display:inline;">
		<path style="fill:#FFFFFF;" d="M-448.207-21.486l0.67,5.675c0.137,1.246,0.09,2.371-0.139,3.375
			c-0.23,1.004-0.555,1.8-0.976,2.388c-0.421,0.588-0.924,1.084-1.511,1.488c-0.946,0.669-1.93,1.061-2.953,1.172
			c-0.048,0.005-0.157-0.104-0.327-0.328c-0.17-0.225-0.342-0.538-0.515-0.938c-0.174-0.403-0.28-0.779-0.318-1.13l0.456-0.05
			c0.319-0.035,0.625-0.097,0.914-0.185c0.29-0.088,0.636-0.283,1.04-0.587c0.403-0.302,0.734-0.678,0.992-1.127
			c0.258-0.448,0.454-1.091,0.589-1.932c0.134-0.84,0.142-1.803,0.023-2.889c-0.007-0.064-0.018-0.095-0.035-0.093l-0.063,0.079
			c-0.557,1.112-1.547,1.747-2.97,1.902c-1.071,0.117-1.972-0.213-2.704-0.991c-0.732-0.775-1.156-1.693-1.271-2.747
			c-0.21-1.918,0.232-3.567,1.327-4.948c1.094-1.381,2.792-2.198,5.092-2.45c0.56-0.061,0.843-0.052,0.852,0.028
			c0.078,0.266,0.135,0.56,0.17,0.879l0.015,0.362l0.264-0.029c0.511-0.056,0.859-0.044,1.046,0.031L-448.207-21.486z
			 M-451.04-23.213l-0.511-0.017c-1.022,0.112-1.797,0.533-2.324,1.262c-0.526,0.729-0.735,1.588-0.626,2.579
			c0.054,0.496,0.249,0.911,0.585,1.247c0.336,0.335,0.788,0.472,1.355,0.41c0.567-0.062,1.018-0.338,1.352-0.828
			c0.335-0.489,0.487-0.87,0.458-1.142C-450.952-21.524-451.048-22.695-451.04-23.213z"/>
	</g>
	<g style="display:inline;">
		<path style="fill:#FFFFFF;" d="M-475.765,8.896l-0.797-6.508c-0.129-1.184-0.153-1.826-0.07-1.93
			c0.199-0.227,0.521-0.454,0.963-0.681c0.443-0.225,0.877-0.363,1.303-0.409c0.425-0.047,0.642-0.033,0.65,0.042
			c0.015,0.823,0.046,1.446,0.093,1.871c0.046,0.426,0.088,0.637,0.125,0.632c0.037-0.004,0.088-0.052,0.153-0.144
			c0.064-0.091,0.184-0.235,0.359-0.432c0.175-0.197,0.509-0.477,1.003-0.84c0.494-0.362,0.962-0.568,1.406-0.617
			c1.201-0.131,2.167,0.307,2.894,1.311c0.893-1.595,1.977-2.462,3.252-2.602c1.146-0.125,2.023,0.274,2.629,1.2
			c0.637,1.034,1.062,2.091,1.273,3.172c0.285,1.579,0.521,3.218,0.708,4.918l0.245,3.257c0.014,0.13-0.277,0.287-0.875,0.475
			c-0.597,0.186-1.081,0.3-1.45,0.341l-0.903-0.042c0.003-1.853-0.057-3.343-0.181-4.471s-0.227-1.935-0.308-2.422
			c-0.081-0.487-0.204-0.97-0.369-1.447c-0.165-0.478-0.375-0.811-0.629-0.999c-0.255-0.187-0.558-0.262-0.908-0.224
			c-0.352,0.039-0.655,0.171-0.912,0.396c-0.256,0.224-0.434,0.436-0.534,0.634c-0.101,0.199-0.147,0.324-0.141,0.38
			c0.121,0.586,0.298,1.952,0.533,4.096l0.128,2.203c0.017,0.148-0.265,0.311-0.845,0.486c-0.58,0.176-1.054,0.285-1.424,0.325
			l-0.903-0.042c0.002-1.516-0.067-2.926-0.21-4.229c-0.143-1.304-0.313-2.212-0.509-2.724c-0.197-0.511-0.591-0.735-1.182-0.671
			c-0.592,0.065-1.059,0.416-1.401,1.053c-0.342,0.636-0.496,1.111-0.461,1.425l0.064,0.583l0.35,2.937
			c0.199,1.813,0.266,2.769,0.202,2.869c-0.414,0.495-1.36,0.823-2.84,0.985c-0.148,0.016-0.225-0.004-0.23-0.059
			C-475.47,12.185-475.554,10.818-475.765,8.896z"/>
	</g>
	<g style="display:inline;">
		<path style="fill:#FFFFFF;" d="M-443.129,8.521c-0.582,0.494-1.788,0.841-3.619,1.042c-1.831,0.2-3.295-0.191-4.395-1.175
			c-1.1-0.982-1.749-2.386-1.948-4.207c-0.2-1.821,0.214-3.466,1.242-4.936c1.027-1.468,2.604-2.32,4.73-2.553
			c0.869-0.095,1.694,0.048,2.475,0.431c0.781,0.383,1.235,1.151,1.362,2.307c0.126,1.156-0.252,2.353-1.137,3.591
			c-0.885,1.238-2.163,2.249-3.836,3.03c0.024,0.223,0.27,0.378,0.738,0.466c0.468,0.089,0.924,0.109,1.369,0.061
			c1.405-0.154,2.487-0.524,3.246-1.113c0.016-0.021,0.043-0.032,0.08-0.037c0.037-0.004,0.075,0.17,0.114,0.521
			C-442.592,7.021-442.732,7.879-443.129,8.521z M-446.508-0.035c-0.059-0.536-0.375-0.773-0.948-0.711
			c-0.758,0.083-1.382,0.544-1.87,1.385c-0.489,0.839-0.672,1.804-0.553,2.894c0.028,0.26,0.079,0.385,0.154,0.376
			c0.663-0.09,1.389-0.559,2.176-1.402C-446.762,1.663-446.415,0.816-446.508-0.035z"/>
	</g>
</g>
<g id="Layer_2">
	<g>
		<g>
			<path style="fill:#1CA8B3;" d="M11.351,90.877c2.666-1.397,4.986-2.839,6.965-4.327s3.231-2.452,3.756-2.894
				c-1.766-2.221-3.434-4.377-5.004-6.467c-1.57-2.088-2.636-3.506-3.197-4.252c-0.561-0.746-0.884-1.238-0.969-1.479
				c-0.084-0.239-0.027-0.575,0.174-1.006c0.199-0.431,0.619-0.886,1.259-1.367c0.913-0.686,1.773-0.492,2.581,0.582l11.912,15.846
				c2.469,3.283,5.107,6.95,7.916,11.003c0.62,0.889,0.199,1.882-1.262,2.98c-0.73,0.549-1.42,0.392-2.071-0.475l-8.735-11.999
				c-0.93,0.792-2.238,1.823-3.928,3.092c-1.689,1.271-3.946,2.688-6.771,4.252c2.961,3.939,6.239,7.92,9.834,11.942
				c0.391,0.455,0.452,0.98,0.187,1.577c-0.267,0.597-0.741,1.153-1.427,1.668c-0.685,0.515-1.315,0.453-1.893-0.188
				c-3.581-3.939-6.92-7.969-10.016-12.087L0.437,83.109c-0.449-0.597-0.552-1.208-0.309-1.836c0.244-0.626,0.623-1.134,1.141-1.523
				c0.852-0.64,1.582-0.558,2.188,0.248L11.351,90.877z"/>
		</g>
		<g>
			<path style="fill:#1CA8B3;" d="M43.009,64.036c1.755-0.997,3.713-1.443,5.874-1.341c2.161,0.103,3.661,0.893,4.501,2.369
				c0.84,1.478,1.006,3.272,0.498,5.386c-0.506,2.114-1.753,3.928-3.738,5.442c-0.854,0.658-2.207,1.513-4.061,2.566
				c1.933,2.553,3.677,3.965,5.234,4.239c0.534,0.169,1.082,0.093,1.646-0.227c2.051-1.167,3.408-2.786,4.07-4.859
				c0.661-2.072,1.29-3.278,1.887-3.617c0.264-0.15,0.8-0.132,1.606,0.053c0.806,0.186,1.33,0.49,1.569,0.911
				c0.48,0.844,0.129,2.654-1.053,5.43c-0.502,1.274-1.265,2.534-2.286,3.78c-1.022,1.248-2.097,2.19-3.221,2.83
				c-2.88,1.637-6.032,1.025-9.456-1.839c-2.135-1.75-3.966-3.972-5.497-6.666c-1.531-2.693-2.206-5.381-2.022-8.063
				C38.746,67.749,40.229,65.617,43.009,64.036z M45.167,67.254c-1.258,0.715-1.938,2.025-2.037,3.928
				c-0.055,0.675,0.259,1.958,0.938,3.847c4.634-2.635,6.315-5.072,5.042-7.311C48.336,66.355,47.021,66.201,45.167,67.254z"/>
		</g>
		<g>
			<path style="fill:#1CA8B3;" d="M76.813,66.266l2.477,5.209c0.282,0.61,0.257,1.301-0.078,2.074
				c-0.334,0.771-0.779,1.286-1.331,1.542c-0.795,0.368-1.578-0.009-2.351-1.132c-0.16-0.255-1.448-2.672-3.863-7.252
				c-2.416-4.579-4.589-8.047-6.521-10.403c-0.907-1.143-1.416-1.833-1.525-2.07c-0.519-1.118-0.086-1.997,1.296-2.637
				c0.587-0.272,1.155-0.267,1.706,0.012c0.549,0.28,0.973,0.629,1.271,1.047c0.297,0.417,0.662,1,1.092,1.746
				c0.431,0.748,0.709,1.214,0.839,1.401c-0.06-2.03,0.44-3.804,1.499-5.324c1.059-1.519,2.451-2.679,4.18-3.48
				c2.833-1.313,4.579-1.257,5.238,0.165c0.33,0.712,0.342,1.396,0.037,2.051c-0.305,0.656-0.785,1.136-1.441,1.439
				c-2.938,1.361-4.587,3.236-4.948,5.625C74.026,58.669,74.835,61.998,76.813,66.266z"/>
		</g>
		<g>
			<path style="fill:#1CA8B3;" d="M96.441,38.68c1.887-0.715,3.892-0.854,6.011-0.42c2.119,0.435,3.479,1.446,4.081,3.035
				c0.603,1.589,0.49,3.388-0.336,5.397c-0.827,2.011-2.339,3.61-4.534,4.801c-0.944,0.519-2.413,1.154-4.407,1.91
				c1.516,2.82,3.021,4.485,4.519,4.995c0.501,0.25,1.055,0.259,1.661,0.03c2.207-0.836,3.798-2.227,4.771-4.173
				c0.973-1.946,1.779-3.041,2.421-3.283c0.284-0.108,0.811-0.008,1.579,0.3c0.768,0.309,1.238,0.689,1.41,1.143
				c0.344,0.908-0.282,2.643-1.877,5.203c-0.693,1.181-1.641,2.308-2.842,3.382c-1.202,1.074-2.408,1.84-3.618,2.299
				c-3.099,1.174-6.118,0.083-9.06-3.275c-1.839-2.058-3.307-4.536-4.404-7.434c-1.098-2.896-1.35-5.657-0.754-8.277
				C91.657,41.69,93.451,39.813,96.441,38.68z M98.078,42.192c-1.354,0.513-2.227,1.702-2.619,3.567
				c-0.158,0.658-0.046,1.974,0.334,3.945c4.985-1.889,7.022-4.038,6.109-6.447C101.348,41.792,100.072,41.437,98.078,42.192z"/>
		</g>
		<g>
			<path style="fill:#1CA8B3;" d="M113.108,15.552c0.276-0.443,0.658-0.745,1.146-0.905c0.488-0.16,0.996-0.139,1.522,0.062
				c0.526,0.202,0.883,0.586,1.068,1.153c0.639,1.952,0.892,3.951,0.76,5.997c-0.132,2.047-0.795,3.265-1.989,3.655
				c-1.194,0.391-1.989-0.017-2.384-1.223c-0.162-0.497-0.136-1.487,0.08-2.972c0.215-1.484,0.091-2.936-0.373-4.356
				C112.777,16.466,112.833,15.995,113.108,15.552z"/>
		</g>
		<g>
			<path style="fill:#1CA8B3;" d="M131.861,28.238c1.193-1.686,2.809-2.811,4.845-3.375c2.036-0.563,4.091-0.744,6.162-0.543
				c2.07,0.202,3.271,0.896,3.599,2.083c0.17,0.612,0.065,1.164-0.313,1.655c-0.377,0.492-0.74,0.786-1.088,0.883
				c-0.35,0.097-0.627,0.164-0.834,0.201c-0.207,0.038-1.033-0.092-2.479-0.389s-2.701-0.298-3.765-0.003
				c-1.064,0.294-1.901,0.808-2.508,1.537c-0.608,0.73-0.772,1.598-0.493,2.606c0.278,1.007,0.929,1.68,1.95,2.016
				c1.021,0.337,2.672,0.414,4.953,0.227c2.279-0.185,4.103-0.061,5.468,0.375s2.331,1.679,2.898,3.729
				c0.827,2.986,0.614,5.321-0.639,7.005c-1.253,1.683-3.017,2.839-5.292,3.469c-2.276,0.63-4.296,0.861-6.062,0.69
				c-1.767-0.169-2.818-0.865-3.157-2.089c-0.388-1.403,0.134-2.304,1.564-2.699c0.366-0.102,1.243-0.073,2.631,0.085
				c1.388,0.159,2.695,0.067,3.926-0.273c1.229-0.34,2.058-0.985,2.485-1.938c0.428-0.951,0.503-1.931,0.225-2.938
				c-0.279-1.007-0.903-1.618-1.871-1.835c-0.97-0.216-2.355-0.229-4.16-0.04c-1.806,0.19-3.156,0.234-4.053,0.134
				c-2.44-0.254-4.074-1.874-4.901-4.861C130.367,31.83,130.669,29.925,131.861,28.238z"/>
		</g>
		<g>
			<path style="fill:#1CA8B3;" d="M197.759,0.026c0.901-0.156,1.595,0.387,2.081,1.628c1.229,5.963,2.459,12.484,3.689,19.564
				c1.23,7.082,1.904,11.18,2.021,12.296c0.116,1.116,0.007,1.932-0.329,2.444c-0.336,0.514-1.048,0.865-2.136,1.054
				c-0.976,0.17-1.564-0.333-1.77-1.511l-2.167-12.47c-0.352-2.022-0.752-4.094-1.196-6.215c-0.447-2.119-0.717-3.456-0.813-4.008
				c-0.905,2.354-2.289,4.404-4.149,6.149c-1.862,1.744-4.086,2.842-6.676,3.292c-2.588,0.45-4.946-0.221-7.074-2.011
				c0.314,2.257,0.739,4.922,1.272,7.992c0.534,3.071,1.113,6.296,1.74,9.673c0.16,0.92-0.033,1.646-0.578,2.176
				c-0.547,0.53-1.213,0.864-2.001,1.001c-1.013,0.177-1.625-0.343-1.836-1.557c-0.539-3.316-1.429-8.562-2.676-15.734
				l-2.724-15.669c-0.108-0.625,0-1.27,0.33-1.934c0.329-0.662,0.783-1.045,1.365-1.146s1.145-0.037,1.686,0.19
				c0.543,0.228,0.887,0.651,1.033,1.27c0.859,4.058,2.063,6.974,3.608,8.752c1.545,1.777,3.144,2.522,4.794,2.235
				c1.651-0.286,3.021-0.799,4.11-1.538c1.09-0.738,1.958-1.524,2.605-2.357c0.647-0.832,1.216-1.953,1.705-3.365
				c0.693-2.016,1.275-4.446,1.747-7.295C195.705,1.218,196.483,0.249,197.759,0.026z"/>
		</g>
		<g>
			<path style="fill:#1CA8B3;" d="M236.039,6.39c0.491-0.057,0.993,0.055,1.505,0.334c0.511,0.279,0.79,0.624,0.837,1.032
				c0.123,1.076-0.816,7.083-2.816,18.023c-2.003,10.94-3.533,18.631-4.594,23.075c-0.226,1.041-0.697,1.603-1.416,1.685
				c-0.72,0.083-1.315-0.103-1.789-0.556c-0.475-0.453-0.766-1.162-0.877-2.126c-0.11-0.965,0.258-3.346,1.106-7.145
				c0.847-3.799,1.346-6.214,1.496-7.247c-1.125-1.449-5.217-8.87-12.275-22.264c-0.098-0.176-0.162-0.414-0.196-0.71
				s0.148-0.712,0.547-1.247c0.398-0.534,0.994-0.847,1.789-0.938s1.481,0.224,2.063,0.947c0.683,1.274,1.82,3.501,3.412,6.681
				c1.593,3.182,2.805,5.475,3.637,6.882c0.832,1.408,1.644,2.875,2.433,4.399c0.329-1.804,0.847-5.292,1.556-10.466
				c0.71-5.173,1.118-8.123,1.228-8.85C233.74,7.068,234.525,6.563,236.039,6.39z"/>
		</g>
		<g>
			<path style="fill:#1CA8B3;" d="M113.512,86.02c0.568-0.217,1.175-0.18,1.817,0.114c0.642,0.293,1.084,0.753,1.325,1.381
				c5.221,13.632,8.438,21.845,9.65,24.638c1.213,2.794,1.834,4.226,1.86,4.295c0.294,0.768,0.357,1.573,0.19,2.416
				c-0.166,0.844-0.508,1.364-1.022,1.562c-0.517,0.197-0.917,0.321-1.203,0.37c-0.288,0.05-0.551,0.082-0.791,0.094
				s-0.507-0.046-0.801-0.173l-0.733-0.319c-0.195-0.084-0.486-0.283-0.87-0.596c-0.386-0.313-0.695-0.563-0.931-0.753
				c-0.236-0.189-0.622-0.531-1.157-1.026c-0.536-0.493-1.672-1.488-3.406-2.982c-1.734-1.495-3.298-2.835-4.69-4.021
				c-4.746-3.979-8.889-6.97-12.428-8.973c4.34,11.331,7.031,19.315,8.074,23.953c0.213,0.878-0.285,1.548-1.493,2.011
				c-0.569,0.218-1.094,0.26-1.574,0.123c-0.479-0.135-0.841-0.518-1.081-1.145s-1.429-4.13-3.565-10.507
				c-2.137-6.378-3.503-10.342-4.098-11.894c-0.594-1.551-0.972-2.536-1.132-2.955c-0.961-2.51-1.307-3.996-1.035-4.46
				c0.271-0.464,0.619-0.777,1.046-0.941c1.956-0.749,6.145,1.245,12.567,5.98c1.25,0.921,3.721,2.902,7.415,5.945
				c3.693,3.043,5.928,4.936,6.701,5.679l-8.952-21.457c-1.148-2.998-1.466-4.836-0.95-5.513
				C112.521,86.52,112.942,86.238,113.512,86.02z"/>
		</g>
		<g>
			<path style="fill:#1CA8B3;" d="M152.406,85.766c1.625-0.41,2.78,0.742,3.466,3.457c0.073,0.291,0.151,0.598,0.233,0.923
				l0.85,3.828c0.264,1.204,0.543,2.386,0.836,3.543l3.931,12.061c0.229,0.905-0.6,1.596-2.481,2.071
				c-0.111,0.028-0.379,0.096-0.804,0.203c-0.425,0.107-0.761,0.019-1.01-0.265c-0.248-0.284-0.367-0.676-0.356-1.18
				c0.011-0.503-0.168-1.017-0.536-1.54c-1.251,2.203-3.279,3.659-6.085,4.368c-5.205,1.315-8.805-1.972-10.798-9.863
				c-1.106-4.379-1.104-7.904,0.01-10.573c1.112-2.668,3.238-4.399,6.376-5.192c1.477-0.373,3.018-0.492,4.623-0.359
				C150.975,86.475,151.557,85.981,152.406,85.766z M147.896,92.162c-2.104,0.532-3.523,1.526-4.255,2.981
				c-0.732,1.456-0.695,3.776,0.109,6.961c1.354,5.358,3.506,7.663,6.461,6.917c0.774-0.196,1.546-0.756,2.313-1.682
				c0.768-0.925,1.227-1.87,1.376-2.832c0.208-2.131,0.02-4.355-0.565-6.672c-0.585-2.316-1.297-3.926-2.134-4.833
				C150.363,92.098,149.261,91.817,147.896,92.162z"/>
		</g>
		<g>
			<path style="fill:#1CA8B3;" d="M176.332,107.051c-0.98,0.147-1.644-0.301-1.992-1.343c-1.117-7.458-2.565-14.036-4.343-19.734
				c-0.111-0.738,0.063-1.444,0.521-2.117c0.457-0.672,1.034-1.061,1.731-1.165c0.696-0.104,1.272,0.206,1.727,0.931
				c1.123-2.019,2.852-3.202,5.187-3.552c2.975-0.446,5.482,0.613,7.522,3.176c1.484-2.939,3.78-4.643,6.888-5.108
				s5.613,0.404,7.524,2.609c1.243,1.362,2.257,3.249,3.042,5.66c0.785,2.412,1.518,5.888,2.198,10.429
				c0.266,1.772,0.282,3.177,0.054,4.211c-0.23,1.035-0.948,1.643-2.153,1.823c-0.979,0.146-1.561-0.389-1.743-1.607l-0.867-6.948
				c-1.244-8.308-4.069-12.131-8.477-11.471c-1.394,0.209-2.3,0.836-2.721,1.88c-0.47,1.241-0.666,2.498-0.591,3.77
				c0.181,2.237,0.407,4.262,0.679,6.07l1.203,8.03c0.088,0.591-0.139,1.135-0.681,1.631c-0.542,0.497-1.132,0.793-1.772,0.889
				c-0.829,0.124-1.437-0.332-1.822-1.369l-1.548-11.49c-0.608-4.061-1.685-6.485-3.227-7.273c-0.75-0.378-1.813-0.465-3.187-0.259
				c-1.376,0.206-2.318,0.856-2.827,1.953c-0.51,1.095-0.599,2.75-0.267,4.966l1.883,10.25
				C178.749,105.066,178.101,106.786,176.332,107.051z"/>
		</g>
		<g>
			<path style="fill:#1CA8B3;" d="M223.536,75.089c2.015-0.129,3.971,0.327,5.869,1.365c1.897,1.039,2.9,2.405,3.009,4.1
				c0.108,1.696-0.526,3.382-1.908,5.061c-1.38,1.679-3.295,2.764-5.744,3.257c-1.054,0.217-2.646,0.394-4.773,0.53
				c0.621,3.141,1.571,5.175,2.852,6.103c0.406,0.386,0.932,0.558,1.578,0.516c2.356-0.151,4.286-1.013,5.788-2.587
				c1.501-1.574,2.595-2.383,3.279-2.427c0.304-0.02,0.776,0.231,1.422,0.751c0.642,0.521,0.981,1.022,1.012,1.506
				c0.063,0.969-1.047,2.443-3.323,4.422c-1.01,0.925-2.247,1.724-3.711,2.397c-1.464,0.674-2.842,1.052-4.134,1.134
				c-3.306,0.212-5.872-1.718-7.696-5.792c-1.154-2.508-1.828-5.307-2.026-8.4c-0.198-3.092,0.372-5.804,1.712-8.134
				C218.079,76.562,220.345,75.294,223.536,75.089z M224.069,78.928c-1.445,0.092-2.628,0.973-3.553,2.641
				c-0.344,0.583-0.623,1.874-0.838,3.869c5.318-0.341,7.896-1.796,7.732-4.367C227.311,79.506,226.196,78.792,224.069,78.928z"/>
		</g>
		<g>
			<path style="fill:#1CA8B3;" d="M262.804,63.266l23.135,0.217c1.096,0.363,1.635,0.918,1.617,1.664
				c-0.045,1.867-0.849,2.781-2.408,2.744c-2.855-0.068-5.884-0.066-9.086,0.006c-0.267,3.206-0.42,5.62-0.458,7.244
				c-0.039,1.623-0.063,2.659-0.075,3.107l-0.241,19.656c-0.028,1.157-0.35,1.821-0.962,1.993c-0.461,0.138-1.034,0.199-1.72,0.184
				c-1.104-0.026-1.696-0.657-1.782-1.892c-0.159-2.879-0.145-8.247,0.043-16.104c0.188-7.856,0.416-12.584,0.683-14.184
				c-0.801,0.018-1.981,0.008-3.542-0.029c-1.563-0.037-3.503-0.102-5.823-0.195c-0.609-0.015-1.081-0.213-1.415-0.594
				s-0.494-0.843-0.481-1.385c0.013-0.54,0.265-1.066,0.753-1.579C261.528,63.609,262.116,63.325,262.804,63.266z"/>
		</g>
		<g>
			<path style="fill:#1CA8B3;" d="M298.931,75.215c2.013,0.159,3.884,0.889,5.615,2.186c1.73,1.299,2.528,2.794,2.395,4.487
				c-0.135,1.694-1.004,3.272-2.609,4.737s-3.656,2.267-6.15,2.406c-1.074,0.064-2.674,0.013-4.801-0.156
				c0.168,3.197,0.818,5.346,1.955,6.446c0.345,0.44,0.842,0.686,1.488,0.736c2.354,0.187,4.386-0.392,6.096-1.736
				c1.711-1.344,2.908-1.989,3.592-1.935c0.304,0.023,0.736,0.339,1.301,0.945c0.562,0.606,0.825,1.152,0.787,1.635
				c-0.077,0.969-1.384,2.27-3.919,3.903c-1.132,0.772-2.47,1.388-4.015,1.846s-2.963,0.636-4.253,0.533
				c-3.303-0.261-5.567-2.537-6.794-6.829c-0.784-2.646-1.053-5.513-0.809-8.603c0.245-3.089,1.195-5.691,2.854-7.807
				C293.319,75.895,295.742,74.962,298.931,75.215z M298.911,79.089c-1.443-0.114-2.739,0.589-3.891,2.107
				c-0.425,0.528-0.885,1.766-1.383,3.711c5.314,0.421,8.072-0.653,8.276-3.221C302.038,80.123,301.036,79.258,298.911,79.089z"/>
		</g>
		<g>
			<path style="fill:#1CA8B3;" d="M319.233,101.318l2.268-22.632c0.09-0.703,0.409-1.245,0.957-1.628
				c0.549-0.381,1.068-0.54,1.559-0.478c1.209,0.155,1.844,0.745,1.904,1.769c0.023,1.02-0.035,2.066-0.172,3.14
				c2.377-2.367,5.095-3.355,8.153-2.964c4.684,0.601,6.354,6.141,5.011,16.621c-0.123,0.963-0.31,2.416-0.559,4.359
				c-0.25,1.944-0.544,3.347-0.885,4.206c-0.406,1.077-1.289,1.528-2.65,1.354c-0.906-0.116-1.283-0.767-1.131-1.952l0.455-3.104
				c0.551-4.295,0.786-7.247,0.703-8.858c-0.081-1.609-0.194-2.895-0.34-3.854c-0.387-2.082-1.297-3.215-2.732-3.398
				c-1.889-0.242-3.296,0.255-4.222,1.491c-1.017,1.337-1.728,2.979-2.129,4.921c-0.705,3.41-1.304,7.041-1.798,10.892
				c-0.096,0.741-0.455,1.297-1.078,1.669s-1.333,0.507-2.125,0.405C319.478,103.156,319.082,102.504,319.233,101.318z"/>
		</g>
		<g>
			<path style="fill:#1CA8B3;" d="M351.731,81.19l2.801,0.555c0.637,0.113,0.996,0.159,1.078,0.136l2.011-11.303
				c0.148-0.618,0.562-1.095,1.24-1.429c0.677-0.335,1.278-0.455,1.806-0.362c0.523,0.094,0.916,0.334,1.176,0.722
				s0.309,0.927,0.148,1.619c-0.163,0.691-0.86,4.511-2.096,11.457l6.619,0.95c1.123,0.2,1.572,0.944,1.343,2.229
				c-0.17,0.957-0.589,1.622-1.253,1.995c-0.668,0.375-1.332,0.523-1.994,0.442c-0.663-0.08-1.313-0.177-1.949-0.29l-3.421-0.665
				c-0.269,1.508-0.64,4.514-1.111,9.017c-0.473,4.505-0.731,7.426-0.775,8.764c-0.045,1.339-0.158,2.19-0.339,2.557
				c-0.182,0.365-0.435,0.596-0.761,0.689c-0.526,0.134-1.203,0.127-2.026-0.02c-0.825-0.147-1.234-0.675-1.228-1.584
				c0.106-4.947,0.776-11.654,2.013-20.118c-0.345-0.022-1.641-0.235-3.891-0.635c-2.25-0.4-3.261-1.243-3.031-2.53
				C348.417,81.55,349.63,80.817,351.731,81.19z"/>
		</g>
	</g>
</g>
</svg>
