<?xml version="1.0" encoding="utf-8"?>
<!-- Generator: Adobe Illustrator 16.0.0, SVG Export Plug-In . SVG Version: 6.00 Build 0)  -->
<!DOCTYPE svg PUBLIC "-//W3C//DTD SVG 1.1//EN" "http://www.w3.org/Graphics/SVG/1.1/DTD/svg11.dtd">
<svg version="1.1" id="Layer_1" xmlns="http://www.w3.org/2000/svg" xmlns:xlink="http://www.w3.org/1999/xlink" x="0px" y="0px"
	 width="307.729px" height="97.707px" viewBox="0 0 307.729 97.707" enable-background="new 0 0 307.729 97.707"
	 xml:space="preserve">
<g>
	<path d="M36.56,7.586c0,0.386-0.202,0.58-0.606,0.58l-3.345-0.079l-0.053,33.372c0,0.474-0.21,0.729-0.632,0.764l-6.375,0.342
		c-0.228,0-0.43-0.193-0.605-0.58L9.43,7.612l0.632,28.815l4.135-0.263c0.246,0,0.386,0.167,0.421,0.5l0.448,5.215
		c-0.036,0.352-0.246,0.527-0.632,0.527L1.686,42.328c-0.246,0-0.404-0.21-0.474-0.632l-0.474-4.399
		c0.035-0.333,0.175-0.5,0.421-0.5l4.135-0.105V8.218l-4.82,0.21C0.281,8.412,0.162,8.363,0.119,8.284
		C0.075,8.205,0.035,8.06,0,7.849l0.29-4.636C0.325,2.88,0.536,2.696,0.922,2.66l11.589-0.579c0.457,0.035,0.781,0.281,0.975,0.737
		L28.42,36.375l-0.685-28.42l-4.083-0.132c-0.193,0-0.316-0.043-0.369-0.131s-0.088-0.237-0.105-0.448l0.158-4.373
		c0.035-0.369,0.246-0.553,0.632-0.553l11.774-0.053c0.193,0.018,0.316,0.066,0.369,0.145s0.087,0.233,0.105,0.461L36.56,7.586z"/>
	<path d="M57.555,42.328c-2.248,0.562-5.101,0.843-8.561,0.843c-3.529,0-6.093-1.089-7.691-3.266
		c-1.668-2.266-2.502-5.856-2.502-10.773c0-5.163,0.711-9.017,2.134-11.563c1.615-2.809,4.196-4.521,7.744-5.136
		c1.229-0.211,2.599-0.316,4.109-0.316c3.249,0,5.61,0.799,7.085,2.397c1.475,1.598,2.212,4.039,2.212,7.322
		c0,2.143-0.377,3.793-1.132,4.952c-0.246,0.369-0.58,0.786-1.001,1.251c-0.421,0.465-1.198,0.878-2.331,1.238
		c-1.133,0.36-2.428,0.637-3.885,0.83c-2.265,0.281-5.382,0.421-9.351,0.421c0.228,2.968,0.957,4.987,2.187,6.058
		c0.93,0.843,2.546,1.264,4.846,1.264c2.16,0,4.311-0.185,6.453-0.553l0.079-1.37c0.018-0.21,0.066-0.351,0.145-0.421
		c0.079-0.07,0.224-0.132,0.435-0.185l3.793-0.843c0.386,0,0.606,0.167,0.658,0.5c0.053,0.299,0.105,0.882,0.158,1.751
		s0.105,1.62,0.158,2.252c0.053,0.632,0.096,1.238,0.132,1.817l0.105,1.475c0.018,0.439,0.026,0.808,0.026,1.106
		c0,0.527-0.386,0.834-1.159,0.922l-4.373,0.527c-0.386,0-0.58-0.193-0.58-0.58L57.555,42.328z M55.935,23.666
		c0.096-0.535,0.145-1.167,0.145-1.896c0-0.728-0.066-1.374-0.197-1.936c-0.132-0.562-0.356-1.045-0.672-1.449
		c-0.685-0.843-1.8-1.265-3.345-1.265c-2.985,0-4.978,0.755-5.979,2.266c-0.948,1.405-1.475,3.828-1.58,7.27
		c6.128-0.088,9.728-0.614,10.799-1.581C55.562,24.672,55.838,24.202,55.935,23.666z"/>
	<path d="M63.195,13.302c0-0.351,0.202-0.527,0.606-0.527l11.695,0.263c0.246,0,0.386,0.049,0.421,0.145
		c0.035,0.097,0.053,0.242,0.053,0.435l-0.132,4.478c-0.018,0.229-0.066,0.378-0.145,0.448c-0.079,0.071-0.224,0.105-0.435,0.105
		l-2.897-0.237l5.031,18.464l5.004-23.574c0.053-0.333,0.29-0.518,0.711-0.553l5.005-0.237c0.421,0.036,0.667,0.22,0.737,0.553
		l5.795,23.811l4.162-18.807l-3.266,0.343c-0.281,0-0.431-0.149-0.448-0.448l-0.29-4.346c0.053-0.351,0.246-0.544,0.58-0.58
		l10.983-0.527c0.281,0.018,0.421,0.229,0.421,0.632v4.82c0,0.369-0.193,0.553-0.579,0.553H103.6l-6.163,23.574
		c-0.088,0.369-0.325,0.553-0.711,0.553l-4.978,0.079c-0.404,0-0.65-0.184-0.738-0.553l-5.558-22.231L80.316,41.88
		c-0.088,0.334-0.325,0.518-0.711,0.553l-4.715,0.211c-0.387-0.036-0.632-0.22-0.737-0.553l-7.665-23.679l-2.476,0.237
		c-0.369,0-0.553-0.21-0.553-0.632L63.195,13.302z"/>
	<path d="M138.244,41.643c-1.475,0.492-3.336,0.737-5.584,0.737s-4.917-0.281-8.007-0.843l0.184,2.107
		c0,0.316-0.202,0.474-0.606,0.474l-4.53,0.132c-0.667-0.035-1.036-0.378-1.106-1.027l-1.001-10.193c0-0.351,0.21-0.544,0.632-0.579
		l5.163-0.474c0.333,0,0.518,0.202,0.553,0.605l0.342,4.267c2.529,0.264,5.048,0.395,7.56,0.395c2.511,0,4.267-0.425,5.268-1.277
		c1.001-0.852,1.501-2.138,1.501-3.859c0-1.545-0.589-2.809-1.765-3.793c-0.615-0.526-1.414-1.044-2.396-1.554l-7.217-3.503
		c-2.546-1.211-4.293-2.182-5.242-2.91s-1.677-1.444-2.186-2.147c-1.019-1.422-1.528-3.095-1.528-5.018s0.298-3.564,0.896-4.926
		c0.597-1.36,1.44-2.533,2.529-3.516c2.282-2.089,5.18-3.134,8.692-3.134c2.493,0,5.198,0.395,8.113,1.185
		c2.248-0.685,3.657-1.027,4.228-1.027c0.569,0,0.873,0.237,0.908,0.711l-0.527,10.931c-0.035,0.404-0.175,0.606-0.421,0.606
		l-4.425-0.158c-0.246-0.017-0.395-0.079-0.448-0.184s-0.088-0.272-0.105-0.5l-0.21-5.795c-2.09-0.491-3.828-0.737-5.215-0.737
		c-3.495,0-5.874,0.975-7.138,2.924c-0.457,0.702-0.685,1.532-0.685,2.489c0,0.958,0.228,1.752,0.685,2.384
		c0.457,0.632,1.115,1.225,1.976,1.778c0.86,0.553,1.914,1.111,3.161,1.673l4.32,1.976c4.056,1.879,6.76,3.556,8.113,5.031
		c1.475,1.598,2.213,3.837,2.213,6.716C144.935,36.788,142.704,40.133,138.244,41.643z"/>
	<path d="M149.389,14.724c0.755-0.808,1.703-1.444,2.845-1.91c1.141-0.465,2.542-0.698,4.201-0.698s3.507,0.255,5.544,0.764
		l4.952-0.922c0.316,0.052,0.491,0.246,0.526,0.579l0.448,9.377c-0.035,0.421-0.229,0.659-0.579,0.711l-4.399,0.579
		c-0.368,0-0.553-0.193-0.553-0.579v-4.452c-1.124-0.263-2.327-0.395-3.608-0.395c-1.282,0-2.41,0.211-3.385,0.632
		s-1.734,1.053-2.278,1.896c-0.948,1.475-1.423,4.013-1.423,7.612c0,5.409,1.106,8.491,3.319,9.245
		c0.702,0.246,1.51,0.369,2.423,0.369c1.317,0,2.827-0.167,4.53-0.5l0.105-1.817c0.035-0.421,0.22-0.649,0.554-0.685l4.161,0.158
		c0.246,0.035,0.386,0.237,0.422,0.605l0.474,8.245c0,0.369-0.176,0.553-0.526,0.553h-5.058c-0.264,0-0.413-0.167-0.447-0.5
		l0.079-1.501c-6.357,1.247-10.721,0.36-13.091-2.66c-1.687-2.177-2.529-5.698-2.529-10.563c0-3.249,0.141-5.671,0.422-7.27
		c0.28-1.598,0.641-2.941,1.08-4.03C148.036,16.48,148.633,15.532,149.389,14.724z"/>
	<path d="M190.745,23.943c0-3.898-1.396-5.848-4.188-5.848c-1.581,0-3.398,0.413-5.453,1.238c-0.614,0.246-1.176,0.509-1.686,0.79
		l-0.105,17.358l3.188,0.316c0.28,0.036,0.421,0.193,0.421,0.474l-0.474,3.398c-0.053,0.369-0.255,0.553-0.605,0.553l-11.115,0.184
		c-0.264,0-0.396-0.21-0.396-0.632l0.5-4.636c0.035-0.193,0.088-0.325,0.158-0.395c0.07-0.07,0.22-0.105,0.448-0.105l2.002,0.21
		V14.935l0.526-9.667l-3.767,0.29c-0.387,0-0.579-0.21-0.579-0.632v-4.03c0-0.316,0.211-0.491,0.632-0.527L179.182,0
		c0.369,0,0.571,0.211,0.606,0.632l-0.632,14.592c3.16-2.055,6.321-3.082,9.481-3.082c4.268,0,6.77,2.301,7.507,6.901
		c0.229,1.44,0.343,3.543,0.343,6.309s-0.185,6.686-0.553,11.761l3.16-0.158c0.369,0.035,0.554,0.22,0.554,0.553v3.872
		c0,0.352-0.202,0.527-0.606,0.527l-11.326,0.264c-0.281,0-0.421-0.211-0.421-0.632l0.579-3.556
		c0.035-0.228,0.093-0.373,0.171-0.435c0.079-0.062,0.215-0.101,0.409-0.119l2.212-0.079c0.018-1.054,0.035-2.221,0.053-3.503
		v-3.819c0.018-1.247,0.026-2.415,0.026-3.503V23.943z"/>
	<path d="M201.917,27.683c0-3.003,0.25-5.5,0.75-7.494c0.501-1.993,1.242-3.586,2.226-4.781c1.826-2.16,4.803-3.24,8.93-3.24
		c2.88,0,4.982,0.29,6.308,0.869c1.326,0.58,2.371,1.238,3.135,1.976s1.418,1.686,1.963,2.845c1.088,2.371,1.633,5.352,1.633,8.942
		c0,3.591-0.25,6.361-0.751,8.31c-0.5,1.949-1.251,3.512-2.252,4.688c-1.861,2.143-4.873,3.213-9.034,3.213
		c-4.355,0-7.524-1.054-9.509-3.161C203.049,37.464,201.917,33.408,201.917,27.683z M219.854,35.875
		c0.527-0.702,0.922-1.686,1.186-2.95c0.264-1.265,0.396-2.81,0.396-4.636c0-1.826-0.097-3.301-0.29-4.425
		c-0.193-1.124-0.461-2.059-0.804-2.805c-0.342-0.746-0.75-1.334-1.225-1.765c-0.474-0.43-0.992-0.751-1.554-0.961
		c-0.843-0.316-1.958-0.474-3.346-0.474c-1.387,0-2.493,0.105-3.318,0.316c-0.826,0.211-1.511,0.659-2.055,1.343
		c-1.036,1.335-1.554,4.021-1.554,8.06c0,5.742,1.545,8.982,4.636,9.719c0.948,0.229,1.976,0.342,3.081,0.342
		c1.106,0,2.059-0.118,2.858-0.355C218.664,37.047,219.327,36.577,219.854,35.875z"/>
	<path d="M230.366,27.683c0-3.003,0.25-5.5,0.75-7.494c0.501-1.993,1.242-3.586,2.226-4.781c1.826-2.16,4.803-3.24,8.93-3.24
		c2.88,0,4.982,0.29,6.308,0.869c1.326,0.58,2.371,1.238,3.135,1.976s1.418,1.686,1.963,2.845c1.088,2.371,1.633,5.352,1.633,8.942
		c0,3.591-0.25,6.361-0.751,8.31c-0.5,1.949-1.251,3.512-2.252,4.688c-1.861,2.143-4.873,3.213-9.034,3.213
		c-4.355,0-7.524-1.054-9.509-3.161C231.498,37.464,230.366,33.408,230.366,27.683z M248.303,35.875
		c0.527-0.702,0.922-1.686,1.186-2.95c0.264-1.265,0.396-2.81,0.396-4.636c0-1.826-0.097-3.301-0.29-4.425
		c-0.193-1.124-0.461-2.059-0.804-2.805c-0.342-0.746-0.75-1.334-1.225-1.765c-0.474-0.43-0.992-0.751-1.554-0.961
		c-0.843-0.316-1.958-0.474-3.346-0.474c-1.387,0-2.493,0.105-3.318,0.316c-0.826,0.211-1.511,0.659-2.055,1.343
		c-1.036,1.335-1.554,4.021-1.554,8.06c0,5.742,1.545,8.982,4.636,9.719c0.948,0.229,1.976,0.342,3.081,0.342
		c1.106,0,2.059-0.118,2.858-0.355C247.113,37.047,247.776,36.577,248.303,35.875z"/>
	<path d="M257.894,6.77c-0.315,0-0.474-0.193-0.474-0.58l0.158-5.163c0-0.211,0.053-0.347,0.158-0.408
		c0.104-0.062,0.263-0.109,0.474-0.145l8.561,0.211c0.193,0,0.316,0.048,0.369,0.145c0.052,0.097,0.087,0.25,0.104,0.461
		l-0.184,4.188l0.395,31.502l3.582-0.29c0.246,0,0.387,0.167,0.422,0.5l0.316,4.768c-0.036,0.211-0.093,0.347-0.172,0.408
		c-0.079,0.062-0.232,0.102-0.461,0.119l-14.302-0.158c-0.246,0-0.369-0.21-0.369-0.632v-4.504c0-0.333,0.141-0.5,0.422-0.5
		l4.978,0.316V6.453L257.894,6.77z"/>
	<path d="M272.91,49.887c1.001-2.23,1.502-3.859,1.502-4.886c0-1.027-0.114-1.783-0.343-2.266c-0.229-0.482-0.491-0.899-0.79-1.251
		c-0.649-0.772-0.975-1.392-0.975-1.857c0-0.465,0.158-0.909,0.475-1.33c0.315-0.421,0.702-0.816,1.158-1.185
		c1.089-0.825,2.028-1.238,2.818-1.238s1.405,0.171,1.844,0.514c0.439,0.342,0.781,0.777,1.027,1.304
		c0.457,0.948,0.685,1.993,0.685,3.135s-0.114,2.16-0.342,3.055c-0.229,0.896-0.536,1.747-0.922,2.555
		c-0.703,1.545-1.633,2.976-2.792,4.293L272.91,49.887z"/>
	<path d="M49.226,60.252c0,0.387-0.202,0.58-0.606,0.58l-3.345-0.079l-0.053,33.372c0,0.475-0.21,0.729-0.632,0.764l-6.375,0.343
		c-0.228,0-0.43-0.192-0.605-0.579L22.096,60.279l0.632,28.814l4.135-0.263c0.246,0,0.386,0.167,0.421,0.5l0.448,5.216
		c-0.036,0.352-0.246,0.526-0.632,0.526l-12.748-0.079c-0.246,0-0.404-0.211-0.474-0.632l-0.474-4.399
		c0.035-0.333,0.175-0.5,0.421-0.5l4.135-0.105V60.885l-4.82,0.211c-0.193-0.018-0.312-0.066-0.355-0.146
		c-0.044-0.079-0.083-0.224-0.119-0.435l0.29-4.636c0.035-0.333,0.246-0.518,0.632-0.554l11.589-0.578
		c0.457,0.035,0.781,0.28,0.975,0.736l14.935,33.557l-0.685-28.42l-4.083-0.132c-0.193,0-0.316-0.044-0.369-0.132
		s-0.088-0.236-0.105-0.447l0.158-4.373c0.035-0.368,0.246-0.553,0.632-0.553l11.774-0.053c0.193,0.018,0.316,0.066,0.369,0.145
		c0.053,0.08,0.087,0.233,0.105,0.461L49.226,60.252z"/>
	<path d="M70.221,94.994c-2.248,0.563-5.101,0.844-8.561,0.844c-3.529,0-6.093-1.09-7.691-3.267
		c-1.668-2.266-2.502-5.856-2.502-10.772c0-5.163,0.711-9.018,2.134-11.564c1.615-2.809,4.196-4.521,7.744-5.135
		c1.229-0.211,2.599-0.316,4.109-0.316c3.249,0,5.61,0.799,7.085,2.396s2.212,4.039,2.212,7.322c0,2.143-0.377,3.793-1.132,4.952
		c-0.246,0.368-0.58,0.786-1.001,1.251s-1.198,0.879-2.331,1.238s-2.428,0.637-3.885,0.83c-2.265,0.28-5.382,0.421-9.351,0.421
		c0.228,2.968,0.957,4.987,2.187,6.058c0.93,0.844,2.546,1.265,4.846,1.265c2.16,0,4.311-0.185,6.453-0.554l0.079-1.369
		c0.018-0.211,0.066-0.352,0.145-0.422c0.079-0.069,0.224-0.131,0.435-0.184l3.793-0.844c0.386,0,0.606,0.168,0.658,0.501
		c0.053,0.299,0.105,0.882,0.158,1.751s0.105,1.621,0.158,2.253s0.096,1.237,0.132,1.817l0.105,1.475
		c0.018,0.439,0.026,0.808,0.026,1.106c0,0.526-0.386,0.834-1.159,0.922l-4.373,0.526c-0.386,0-0.58-0.193-0.58-0.579L70.221,94.994
		z M68.602,76.332c0.096-0.535,0.145-1.167,0.145-1.896c0-0.728-0.066-1.373-0.197-1.936c-0.132-0.562-0.356-1.045-0.672-1.448
		c-0.685-0.843-1.8-1.265-3.345-1.265c-2.985,0-4.978,0.756-5.979,2.266c-0.948,1.404-1.475,3.828-1.58,7.27
		c6.128-0.088,9.728-0.614,10.799-1.58C68.228,77.338,68.505,76.869,68.602,76.332z"/>
	<path d="M75.862,65.969c0-0.352,0.202-0.527,0.606-0.527l11.695,0.264c0.246,0,0.386,0.049,0.421,0.145
		c0.035,0.097,0.053,0.242,0.053,0.435l-0.132,4.478c-0.018,0.229-0.066,0.378-0.145,0.447c-0.079,0.071-0.224,0.105-0.435,0.105
		l-2.897-0.236l5.031,18.464l5.004-23.573c0.053-0.334,0.29-0.519,0.711-0.554l5.005-0.237c0.421,0.035,0.667,0.22,0.737,0.553
		l5.795,23.812l4.162-18.807l-3.266,0.343c-0.281,0-0.431-0.148-0.448-0.447l-0.29-4.347c0.053-0.351,0.246-0.544,0.58-0.579
		l10.983-0.527c0.281,0.018,0.421,0.229,0.421,0.633v4.82c0,0.368-0.193,0.553-0.579,0.553h-2.608l-6.163,23.574
		c-0.088,0.368-0.325,0.553-0.711,0.553l-4.978,0.078c-0.404,0-0.65-0.184-0.738-0.553l-5.558-22.23l-5.136,21.941
		c-0.088,0.334-0.325,0.518-0.711,0.553l-4.715,0.211c-0.387-0.035-0.632-0.22-0.737-0.553l-7.665-23.68l-2.476,0.236
		c-0.369,0-0.553-0.21-0.553-0.631L75.862,65.969z"/>
	<path d="M131.024,60.621c-0.246-0.053-0.386-0.219-0.421-0.5l0.369-4.847c0.018-0.421,0.175-0.632,0.474-0.632l19.281,0.447
		l-0.026-1.396c0-0.403,0.192-0.632,0.579-0.685l4.162-0.368c0.298,0,0.482,0.201,0.553,0.605l1.423,11.063
		c0,0.281-0.202,0.439-0.606,0.475l-4.794,0.395c-0.702,0-1.071-0.342-1.106-1.027l-0.078-3.635l-10.352-0.289l-0.185,12.537
		l13.591-0.053c0.316,0,0.475,0.167,0.475,0.5l-0.185,4.268c-0.035,0.404-0.272,0.605-0.711,0.605l-13.25-0.342l-0.158,11.8
		l6.796-0.396c0.368,0,0.57,0.193,0.605,0.58l0.29,4.636c-0.018,0.228-0.053,0.386-0.105,0.474s-0.176,0.132-0.369,0.132
		l-15.777,0.316c-0.211-0.036-0.365-0.083-0.461-0.146c-0.097-0.061-0.154-0.197-0.171-0.408l-0.29-4.793
		c0-0.352,0.158-0.545,0.474-0.58l3.319,0.158l0.21-29.184L131.024,60.621z"/>
	<path d="M159.843,95.469c-0.281,0-0.421-0.211-0.421-0.633v-4.557c0-0.369,0.192-0.553,0.579-0.553h3.082V71.895l-3.767,0.316
		c-0.281-0.018-0.457-0.229-0.527-0.633l-0.579-5.609c0.053-0.334,0.264-0.519,0.632-0.554l8.087-0.554
		c0.315,0,0.474,0.203,0.474,0.606l-0.396,4.346c1.984-2.194,4.899-3.651,8.745-4.372c1.159-0.229,2.273-0.342,3.345-0.342
		s1.624,0.28,1.66,0.842l0.315,9.641c0,0.316-0.131,0.492-0.395,0.527l-4.952,0.368c-0.211,0-0.378-0.035-0.5-0.105
		c-0.123-0.069-0.185-0.255-0.185-0.554v-4.661c-2.283,0.193-4.294,0.649-6.032,1.37L168.72,89.91l4.583-0.342
		c0.28,0,0.43,0.149,0.447,0.447l0.29,4.347c-0.053,0.352-0.246,0.544-0.579,0.579L159.843,95.469z"/>
	<path d="M183.184,95.521c-0.246,0-0.369-0.211-0.369-0.633v-3.977c0-0.334,0.141-0.501,0.422-0.501h3.16L186.607,72l-4.267-0.447
		c-0.316-0.035-0.475-0.229-0.475-0.58l0.58-4.346c0.069-0.316,0.28-0.501,0.632-0.554l8.455-0.869c0.192,0,0.315,0.049,0.368,0.146
		c0.053,0.096,0.088,0.25,0.105,0.461l0.343,4.793l-0.079,19.808h3.003c0.28,0,0.421,0.167,0.421,0.501l-0.474,3.45
		c-0.035,0.21-0.093,0.347-0.171,0.408c-0.079,0.062-0.233,0.101-0.461,0.118L183.184,95.521z M191.375,59.277
		c-0.334,0.264-0.781,0.439-1.344,0.527c-0.562,0.088-1.233,0.132-2.015,0.132s-1.379-0.044-1.791-0.132
		c-0.413-0.088-0.742-0.246-0.987-0.475c-0.404-0.421-0.606-1.167-0.606-2.238c0-1.07,0.057-1.84,0.172-2.305
		c0.113-0.465,0.329-0.83,0.645-1.094c0.544-0.456,1.436-0.685,2.674-0.685s2.067,0.031,2.489,0.093
		c0.421,0.062,0.755,0.206,1.001,0.434c0.421,0.369,0.632,1.107,0.632,2.213c0,1.106-0.062,1.906-0.185,2.396
		C191.937,58.637,191.708,59.015,191.375,59.277z"/>
	<path d="M215.531,94.994c-2.248,0.563-5.102,0.844-8.561,0.844c-3.529,0-6.093-1.09-7.691-3.267
		c-1.668-2.266-2.502-5.856-2.502-10.772c0-5.163,0.711-9.018,2.134-11.564c1.615-2.809,4.196-4.521,7.744-5.135
		c1.229-0.211,2.599-0.316,4.108-0.316c3.249,0,5.61,0.799,7.086,2.396c1.475,1.598,2.212,4.039,2.212,7.322
		c0,2.143-0.378,3.793-1.133,4.952c-0.246,0.368-0.579,0.786-1.001,1.251c-0.421,0.465-1.198,0.879-2.331,1.238
		c-1.132,0.359-2.428,0.637-3.885,0.83c-2.265,0.28-5.382,0.421-9.351,0.421c0.229,2.968,0.957,4.987,2.187,6.058
		c0.931,0.844,2.546,1.265,4.847,1.265c2.159,0,4.311-0.185,6.453-0.554l0.079-1.369c0.017-0.211,0.065-0.352,0.145-0.422
		c0.079-0.069,0.224-0.131,0.435-0.184l3.793-0.844c0.386,0,0.605,0.168,0.658,0.501c0.053,0.299,0.105,0.882,0.158,1.751
		s0.105,1.621,0.158,2.253s0.097,1.237,0.132,1.817l0.105,1.475c0.017,0.439,0.026,0.808,0.026,1.106
		c0,0.526-0.387,0.834-1.159,0.922l-4.372,0.526c-0.387,0-0.58-0.193-0.58-0.579L215.531,94.994z M213.911,76.332
		c0.097-0.535,0.146-1.167,0.146-1.896c0-0.728-0.066-1.373-0.198-1.936c-0.132-0.562-0.355-1.045-0.671-1.448
		c-0.686-0.843-1.801-1.265-3.346-1.265c-2.985,0-4.978,0.756-5.979,2.266c-0.948,1.404-1.476,3.828-1.581,7.27
		c6.128-0.088,9.729-0.614,10.8-1.58C213.538,77.338,213.814,76.869,213.911,76.332z"/>
	<path d="M242.586,71.367c-2.23,0-4.777,0.914-7.639,2.74l0.315,15.777l2.871-0.316c0.299,0,0.448,0.149,0.448,0.447l-0.501,4.083
		c-0.07,0.387-0.263,0.579-0.579,0.579h-10.983c-0.281,0-0.422-0.211-0.422-0.632l0.527-4.03c0.069-0.368,0.263-0.553,0.579-0.553
		h2.239v-17.41l-4.03-0.105c-0.352,0-0.526-0.211-0.526-0.633l0.474-4.557c0.035-0.298,0.246-0.482,0.632-0.553l7.297-1.08
		c0.315,0,0.474,0.202,0.474,0.605v4.557c3.617-3.617,7.173-5.426,10.668-5.426c4.003,0,6.391,1.906,7.164,5.717
		c0.246,1.264,0.369,2.445,0.369,3.542c0,1.098-0.01,2.02-0.026,2.766c-0.019,0.747-0.045,1.567-0.079,2.463l-0.053,2.739
		c-0.036,0.966-0.07,1.932-0.105,2.897l-0.105,2.792c-0.035,0.896-0.07,1.721-0.105,2.477l3.029-0.133
		c0.368,0,0.553,0.211,0.553,0.633v3.871c0,0.211-0.049,0.348-0.145,0.408c-0.097,0.063-0.25,0.102-0.461,0.119l-7.639,0.58
		c-0.387,0-0.579-0.193-0.579-0.58c0.053-1.914,0.079-3.714,0.079-5.399l0.053-4.399c0-1.246,0-2.414,0-3.502v-4.82
		c0-2.178-0.185-3.569-0.554-4.176c-0.368-0.605-0.799-1.004-1.29-1.198C244.043,71.465,243.393,71.367,242.586,71.367z"/>
	<path d="M271.141,57.882c-0.352,0-0.526-0.211-0.526-0.632l0.264-4.215c0.035-0.352,0.236-0.526,0.605-0.526l9.034,0.5
		c0.316,0.036,0.475,0.237,0.475,0.606v36.98l2.766-0.29c0.351,0,0.526,0.167,0.526,0.501l-0.474,4.082
		c-0.053,0.299-0.255,0.475-0.606,0.527l-6.532,1.053c-0.333,0-0.5-0.193-0.5-0.579l0.211-2.607
		c-2.95,1.212-5.589,1.817-7.915,1.817c-2.327,0-4.201-0.316-5.624-0.948c-1.422-0.632-2.572-1.58-3.45-2.845
		c-1.58-2.335-2.37-6.198-2.37-11.59c0-7.796,2.01-12.502,6.031-14.117c1.352-0.545,3.188-0.816,5.505-0.816
		c2.318,0,4.768,0.491,7.349,1.475l-0.342-8.297L271.141,57.882z M276.066,71.605c-2.511-0.615-4.562-0.922-6.15-0.922
		s-2.801,0.123-3.635,0.368c-0.834,0.246-1.515,0.711-2.041,1.396c-1.019,1.317-1.528,3.838-1.528,7.561
		c0,3.705,0.404,6.215,1.212,7.532c0.878,1.423,2.555,2.134,5.031,2.134c2.036,0,4.223-0.343,6.559-1.027L276.066,71.605z"/>
	<path d="M305.253,72.685c-4.741-1.615-8.086-2.423-10.035-2.423c-2.107,0-3.529,0.518-4.267,1.554
		c-0.299,0.404-0.448,0.905-0.448,1.501c0,0.598,0.07,1.115,0.211,1.555s0.396,0.825,0.764,1.158
		c0.737,0.703,2.16,1.221,4.268,1.555c2.106,0.334,3.946,0.697,5.518,1.093s2.836,0.905,3.793,1.528s1.642,1.408,2.055,2.357
		c0.412,0.947,0.619,2.164,0.619,3.647c0,1.484-0.22,2.796-0.659,3.938c-0.438,1.141-1.063,2.106-1.87,2.896
		c-1.633,1.563-3.897,2.344-6.795,2.344c-1.984,0-4.268-0.245-6.849-0.736l0.448,2.186c0,0.281-0.202,0.439-0.606,0.475l-4.53,0.395
		c-0.668,0-1.036-0.342-1.106-1.027l-0.737-7.822c0-0.316,0.211-0.51,0.632-0.58l4.109-0.737c0.298,0,0.482,0.202,0.553,0.606
		l0.316,1.738c2.546,0.404,4.645,0.605,6.295,0.605s2.88-0.347,3.688-1.041c0.808-0.693,1.212-1.61,1.212-2.752
		c0-1.07-0.431-1.834-1.291-2.291c-0.755-0.422-2.234-0.804-4.438-1.146c-2.204-0.342-4.018-0.72-5.439-1.133
		c-1.422-0.412-2.591-0.961-3.503-1.646c-1.738-1.299-2.607-3.502-2.607-6.61c0-2.704,0.816-4.864,2.449-6.479
		c1.738-1.703,4.17-2.555,7.296-2.555c1.844,0,3.969,0.614,6.374,1.844l-0.5-2.081c0-0.422,0.185-0.649,0.553-0.685l5.216-0.422
		c0.28,0,0.421,0.202,0.421,0.605l-0.579,8.033C305.763,72.5,305.587,72.685,305.253,72.685z"/>
</g>
</svg>
